<?xml version="1.0" standalone="no"?>
<!DOCTYPE svg PUBLIC "-//W3C//DTD SVG 20010904//EN"
 "http://www.w3.org/TR/2001/REC-SVG-20010904/DTD/svg10.dtd">
<svg version="1.0" xmlns="http://www.w3.org/2000/svg"
 width="1133.000000pt" height="140.000000pt" viewBox="0 0 1133.000000 140.000000"
 preserveAspectRatio="xMidYMid meet">

<g transform="translate(0.000000,140.000000) scale(0.100000,-0.100000)"
fill="#000000" stroke="none">
<path d="M623 1385 c-59 -18 -126 -59 -157 -96 -24 -28 -402 -653 -440 -726
-33 -65 -11 -139 50 -168 26 -12 81 -15 298 -15 l267 0 31 -50 31 -50 138 0
c77 0 139 2 139 5 0 3 -12 24 -26 46 -14 23 -23 43 -21 46 3 2 841 4 1863 4
1236 0 1880 3 1924 10 78 12 153 45 201 87 22 19 75 101 135 206 l99 176 78 0
c42 0 77 -2 77 -4 0 -3 -37 -70 -81 -150 -94 -169 -105 -210 -67 -266 14 -20
38 -40 58 -47 26 -8 228 -11 743 -11 390 0 710 -2 712 -4 1 -2 -42 -83 -96
-182 -55 -98 -99 -180 -99 -183 0 -2 73 -2 162 -1 l163 3 30 46 c16 26 64 108
105 183 l75 136 215 1 c118 0 494 0 835 0 374 0 646 3 685 10 81 12 157 48
207 98 21 21 80 113 132 205 l93 166 80 0 c43 0 77 -3 75 -7 -2 -5 -39 -71
-82 -148 -63 -111 -80 -149 -83 -190 -4 -44 0 -55 22 -82 15 -18 41 -36 59
-42 21 -7 358 -10 1002 -8 l969 2 48 85 47 85 -334 3 c-184 1 -335 6 -335 10
0 4 7 15 14 25 12 15 36 17 247 17 l234 0 69 122 c87 152 95 196 46 251 -18
21 -47 41 -68 47 -48 13 -404 13 -461 -1 -67 -15 -150 -59 -195 -104 -24 -24
-77 -106 -131 -202 l-90 -162 -133 -1 c-104 0 -133 3 -130 13 2 7 66 119 142
250 l139 237 82 0 c50 0 87 5 97 13 23 19 58 82 58 106 0 19 -5 21 -70 21 -44
0 -70 4 -70 11 0 6 20 47 45 91 25 44 45 82 45 84 0 2 -74 4 -164 6 l-165 3
-54 -95 c-53 -92 -56 -95 -96 -101 -22 -3 -42 -7 -44 -10 -13 -14 -57 -98 -57
-107 0 -5 11 -14 25 -19 24 -8 23 -10 -121 -256 l-146 -247 -95 0 -95 0 20 33
c124 206 223 390 220 409 l-3 23 -233 3 -232 2 6 24 c4 18 0 27 -14 35 -26 14
-147 14 -172 1 -11 -6 -83 -123 -161 -261 -107 -189 -149 -253 -167 -260 -14
-6 -58 -8 -98 -7 l-72 3 84 150 c92 164 101 202 65 261 -36 58 -76 66 -337 62
l-229 -3 -75 -36 c-41 -20 -92 -52 -112 -72 -20 -20 -78 -111 -130 -201 l-93
-165 -88 -1 -88 0 29 53 c133 233 152 272 152 315 0 37 -6 50 -34 78 l-34 34
-333 -2 -332 -3 -131 -235 -132 -235 -127 -3 c-70 -1 -127 -1 -127 1 0 3 37
69 82 148 74 129 83 149 83 196 0 44 -4 56 -29 82 -17 17 -46 36 -65 41 -20 5
-129 10 -243 10 -231 0 -284 -10 -378 -70 -68 -44 -84 -65 -186 -245 -48 -87
-93 -159 -99 -161 -6 -3 -55 -3 -108 -2 l-96 3 119 205 c66 113 120 215 120
226 0 12 -7 25 -16 28 -9 3 -115 6 -235 6 -212 0 -220 1 -214 19 11 35 -20 51
-100 51 -55 0 -78 -4 -93 -18 -19 -16 -71 -104 -231 -390 -35 -62 -71 -117
-81 -122 -20 -11 -310 -14 -310 -3 0 3 64 116 142 249 l143 243 90 3 90 3 32
53 c17 30 29 60 26 68 -3 9 -28 14 -78 16 l-74 3 46 80 c25 44 47 86 50 93 4
10 -30 12 -162 10 l-167 -3 -52 -90 c-50 -86 -54 -90 -91 -95 -34 -4 -44 -12
-73 -55 -36 -56 -38 -78 -4 -83 12 -2 22 -5 22 -6 0 -5 -281 -481 -289 -489
-4 -4 -85 -6 -179 -5 l-171 3 144 245 143 245 74 3 c108 3 115 6 143 62 39 77
37 80 -50 80 -72 0 -85 5 -66 26 4 5 27 44 50 87 l42 77 -168 0 -168 0 -53
-95 c-53 -94 -53 -95 -92 -95 -35 0 -41 -4 -70 -51 -34 -57 -36 -80 -4 -89 20
-5 11 -24 -117 -240 -76 -129 -142 -241 -146 -248 -6 -10 -35 -12 -110 -10
l-102 3 119 210 c66 116 120 217 120 226 0 38 -18 40 -347 37 l-318 -3 -65
-32 c-109 -53 -136 -83 -240 -271 l-95 -171 -92 -1 c-51 0 -93 2 -93 3 0 2 54
99 120 216 66 117 120 218 120 226 0 30 -28 36 -171 33 l-144 -3 -135 -237
-135 -238 -69 0 c-60 0 -67 2 -62 17 4 9 59 108 122 220 145 257 148 243 -51
243 -103 0 -147 -4 -156 -12 -6 -7 -69 -114 -139 -238 l-128 -225 -76 -3 c-45
-2 -76 1 -76 7 0 6 37 72 83 148 246 408 310 524 311 563 1 43 -26 87 -65 107
-35 19 -857 17 -916 -2z m570 -172 c7 -12 -350 -605 -379 -630 -24 -22 -32
-23 -230 -23 -113 0 -204 4 -202 9 2 4 89 153 193 330 l190 321 212 0 c116 0
214 -3 216 -7z m6237 -349 c0 -4 -37 -71 -82 -150 l-82 -144 -68 0 c-37 0 -68
3 -68 6 0 3 36 70 81 150 l81 144 69 0 c38 0 69 -3 69 -6z m964 -60 c-20 -36
-58 -103 -84 -148 l-46 -81 -67 -3 c-46 -2 -67 1 -67 9 0 11 131 249 153 277
6 7 35 12 79 12 l69 0 -37 -66z m-5374 50 c0 -3 -36 -70 -81 -150 l-81 -144
-69 0 c-38 0 -69 3 -69 6 0 4 37 71 82 150 l82 144 68 0 c37 0 68 -3 68 -6z
m3330 1 c0 -3 -37 -71 -82 -150 l-82 -145 -68 0 c-37 0 -68 3 -68 7 0 3 37 71
82 150 l81 143 69 0 c37 0 68 -2 68 -5z m4588 -12 c-32 -66 -27 -63 -95 -63
-34 0 -63 2 -63 5 0 4 7 19 15 35 15 29 19 30 81 30 36 0 64 -3 62 -7z"/>
</g>
</svg>
