<svg id="visual" viewBox="0 0 960 340" width="960" height="340" xmlns="http://www.w3.org/2000/svg" xmlns:xlink="http://www.w3.org/1999/xlink" version="1.1"><rect x="0" y="0" width="960" height="340" fill="#ffffff"></rect><path d="M0 245L22.8 245C45.7 245 91.3 245 137 243C182.7 241 228.3 237 274 232.7C319.7 228.3 365.3 223.7 411.2 226.3C457 229 503 239 548.8 238.7C594.7 238.3 640.3 227.7 686 223.5C731.7 219.3 777.3 221.7 823 222.5C868.7 223.3 914.3 222.7 937.2 222.3L960 222L960 341L937.2 341C914.3 341 868.7 341 823 341C777.3 341 731.7 341 686 341C640.3 341 594.7 341 548.8 341C503 341 457 341 411.2 341C365.3 341 319.7 341 274 341C228.3 341 182.7 341 137 341C91.3 341 45.7 341 22.8 341L0 341Z" fill="#a20000"></path><path d="M0 256L22.8 253.7C45.7 251.3 91.3 246.7 137 244C182.7 241.3 228.3 240.7 274 237.3C319.7 234 365.3 228 411.2 230.3C457 232.7 503 243.3 548.8 250C594.7 256.7 640.3 259.3 686 254.5C731.7 249.7 777.3 237.3 823 235.5C868.7 233.7 914.3 242.3 937.2 246.7L960 251L960 341L937.2 341C914.3 341 868.7 341 823 341C777.3 341 731.7 341 686 341C640.3 341 594.7 341 548.8 341C503 341 457 341 411.2 341C365.3 341 319.7 341 274 341C228.3 341 182.7 341 137 341C91.3 341 45.7 341 22.8 341L0 341Z" fill="#8f0028"></path><path d="M0 241L22.8 244.2C45.7 247.3 91.3 253.7 137 258.3C182.7 263 228.3 266 274 269.3C319.7 272.7 365.3 276.3 411.2 274.8C457 273.3 503 266.7 548.8 263.5C594.7 260.3 640.3 260.7 686 261.7C731.7 262.7 777.3 264.3 823 265C868.7 265.7 914.3 265.3 937.2 265.2L960 265L960 341L937.2 341C914.3 341 868.7 341 823 341C777.3 341 731.7 341 686 341C640.3 341 594.7 341 548.8 341C503 341 457 341 411.2 341C365.3 341 319.7 341 274 341C228.3 341 182.7 341 137 341C91.3 341 45.7 341 22.8 341L0 341Z" fill="#6f003c"></path><path d="M0 274L22.8 274.8C45.7 275.7 91.3 277.3 137 280C182.7 282.7 228.3 286.3 274 283.3C319.7 280.3 365.3 270.7 411.2 266.5C457 262.3 503 263.7 548.8 268.5C594.7 273.3 640.3 281.7 686 282.8C731.7 284 777.3 278 823 278.2C868.7 278.3 914.3 284.7 937.2 287.8L960 291L960 341L937.2 341C914.3 341 868.7 341 823 341C777.3 341 731.7 341 686 341C640.3 341 594.7 341 548.8 341C503 341 457 341 411.2 341C365.3 341 319.7 341 274 341C228.3 341 182.7 341 137 341C91.3 341 45.7 341 22.8 341L0 341Z" fill="#480a41"></path><path d="M0 311L22.8 306.2C45.7 301.3 91.3 291.7 137 289.8C182.7 288 228.3 294 274 295.8C319.7 297.7 365.3 295.3 411.2 293C457 290.7 503 288.3 548.8 291C594.7 293.7 640.3 301.3 686 305.3C731.7 309.3 777.3 309.7 823 307.7C868.7 305.7 914.3 301.3 937.2 299.2L960 297L960 341L937.2 341C914.3 341 868.7 341 823 341C777.3 341 731.7 341 686 341C640.3 341 594.7 341 548.8 341C503 341 457 341 411.2 341C365.3 341 319.7 341 274 341C228.3 341 182.7 341 137 341C91.3 341 45.7 341 22.8 341L0 341Z" fill="#211037"></path><path d="M0 309L22.8 309.5C45.7 310 91.3 311 137 311.2C182.7 311.3 228.3 310.7 274 312.3C319.7 314 365.3 318 411.2 320.7C457 323.3 503 324.7 548.8 322C594.7 319.3 640.3 312.7 686 310.2C731.7 307.7 777.3 309.3 823 311C868.7 312.7 914.3 314.3 937.2 315.2L960 316L960 341L937.2 341C914.3 341 868.7 341 823 341C777.3 341 731.7 341 686 341C640.3 341 594.7 341 548.8 341C503 341 457 341 411.2 341C365.3 341 319.7 341 274 341C228.3 341 182.7 341 137 341C91.3 341 45.7 341 22.8 341L0 341Z" fill="#000624"></path></svg>